<svg width="818" height="129" viewBox="0 0 818 129" fill="none" xmlns="http://www.w3.org/2000/svg">
<path d="M113.52 40.2481L78.432 40.4201C77.744 35.9481 76.196 32.8521 73.788 30.9601C71.38 29.0681 67.768 28.2081 62.952 28.2081C58.824 28.2081 55.384 29.0681 52.804 30.7881C50.396 32.5081 49.02 34.7441 49.02 37.4961C49.02 39.7321 50.052 41.6241 51.944 43.0001C53.836 44.3761 57.62 45.7521 63.296 47.3001C76.884 50.9121 86.172 54.1801 90.988 56.9321C101.996 63.1241 107.328 72.5841 107.328 85.4841C107.328 92.7081 105.78 99.2441 102.512 104.92C99.416 110.596 95.116 115.068 89.612 118.336C84.28 121.604 78.432 124.012 72.068 125.732C65.704 127.28 58.996 128.14 51.772 128.14C44.72 128.14 38.184 127.28 31.992 125.732C25.972 124.184 20.468 121.776 15.652 118.68C10.836 115.584 6.88001 111.284 4.12801 105.78C1.37601 100.276 9.9726e-06 93.9121 9.9726e-06 86.6881V84.4521H36.808C36.808 95.1161 43 100.448 55.384 100.448C60.2 100.448 64.156 99.4161 67.08 97.5241C69.832 95.6321 71.38 93.0521 71.38 89.7841C71.38 88.7521 71.208 87.8921 71.036 87.2041C70.864 86.5161 70.52 85.8281 70.004 85.1401C69.316 84.4521 68.8 83.9361 68.284 83.4201C67.768 82.9041 66.908 82.3881 65.876 81.8721C64.844 81.3561 63.812 80.8401 62.952 80.4961C62.092 80.1521 60.888 79.6361 59.168 79.1201C57.448 78.6041 55.9 78.2601 54.868 77.9161C53.836 77.5721 52.116 77.0561 49.88 76.3681C47.472 75.6801 45.58 74.9921 44.204 74.6481C34.572 71.7241 27.176 67.7681 21.672 62.6081C16.168 57.4481 13.416 50.3961 13.416 41.2801C13.416 34.4001 14.792 28.3801 17.716 22.8761C20.64 17.5441 24.596 13.244 29.412 10.1481C34.228 7.05206 39.732 4.81605 45.58 3.09606C51.428 1.54806 57.62 0.688057 64.156 0.688057C80.324 0.688057 92.536 3.95606 100.964 10.4921C109.22 17.0281 113.52 26.6601 113.52 39.2161V40.2481ZM228.587 3.09606L221.879 34.2281H188.167L168.731 125.56H131.235L150.671 34.2281H115.927L122.463 3.09606H228.587ZM343.902 3.09606L329.11 74.4761C325.326 92.8801 318.962 106.296 309.674 114.724C300.386 123.324 286.626 127.452 268.05 127.452C251.022 127.452 237.95 124.356 229.006 117.992C220.062 111.8 215.59 102.684 215.59 90.8161C215.59 87.5481 216.45 81.3561 218.342 72.4121L232.962 3.09606H270.458L255.322 73.9601C254.462 77.7441 254.118 80.8401 254.118 83.2481C254.118 87.8921 255.494 91.5041 258.246 93.9121C260.998 96.3201 264.782 97.5241 269.942 97.5241C273.554 97.5241 276.65 96.8361 279.402 95.2881C282.154 93.9121 284.218 91.6761 285.938 88.5801C287.486 85.6561 288.69 82.9041 289.55 80.4961C290.238 78.0881 291.098 74.8201 292.13 70.6921L306.75 3.09606H343.902ZM356.078 3.09606H402.862C414.214 3.09606 423.33 4.12805 430.21 6.19206C439.498 8.94405 446.722 14.6201 452.226 23.2201C457.73 31.8201 460.482 42.1401 460.482 54.0081C460.482 73.7881 454.634 90.3001 443.282 103.544C435.542 112.488 427.286 118.336 418.342 121.26C409.398 124.184 398.218 125.56 384.802 125.56H330.106L356.078 3.09606ZM386.522 33.7121L373.622 94.6001H385.49C391.682 94.6001 396.326 94.2561 399.766 93.3961C403.206 92.7081 406.302 91.1601 409.054 89.0961C413.01 86.0001 416.278 81.5281 418.858 75.6801C421.266 69.8321 422.642 63.6401 422.642 57.1041C422.642 48.1601 420.406 42.1401 415.934 38.7001C411.462 35.4321 404.582 33.7121 395.294 33.7121H386.522ZM518.157 3.09606L492.185 125.56H454.689L480.661 3.09606H518.157ZM637.01 52.4601C637.01 66.5641 634.258 79.1201 628.926 90.4721C623.766 101.824 615.682 111.112 605.018 117.992C594.354 125.044 581.97 128.484 567.694 128.484C550.322 128.484 536.734 123.84 526.93 114.208C517.298 104.748 512.31 91.1601 512.31 73.4441C512.31 52.4601 518.674 35.0881 531.402 20.9841C544.13 7.05206 560.814 5.53131e-05 581.626 5.53131e-05C598.31 5.53131e-05 611.726 4.64406 621.874 13.7601C631.85 23.0481 637.01 35.9481 637.01 52.4601ZM579.734 29.928C574.574 29.928 570.102 31.476 565.974 34.5721C561.846 37.4961 558.75 41.2801 556.514 46.0961C554.278 50.7401 552.558 55.5561 551.354 60.7161C550.322 65.7041 549.634 70.5201 549.634 75.1641C549.634 82.7321 551.526 88.5801 555.138 92.7081C558.75 96.8361 563.738 98.7281 570.274 98.7281C576.638 98.7281 582.142 95.9761 586.614 90.4721C591.258 84.9681 594.526 78.9481 596.246 72.4121C598.138 65.8761 598.998 59.5121 598.998 53.4921C598.998 46.6121 597.45 40.9361 594.354 36.4641C591.258 32.1641 586.442 29.928 579.734 29.928Z" fill="#FFE600"></path>
<path d="M725.745 25.2841H674.489L666.577 50.9121L666.921 51.2561C668.297 50.1094 669.673 49.0774 671.049 48.1601C672.539 47.2427 674.202 46.4401 676.037 45.7521C677.871 45.0641 679.935 44.5481 682.229 44.2041C684.637 43.8601 687.389 43.6881 690.485 43.6881C694.957 43.6881 699.199 44.5481 703.213 46.2681C707.226 47.8734 710.781 50.2241 713.877 53.3201C716.973 56.4161 719.438 60.2001 721.273 64.6721C723.107 69.0294 724.025 74.0174 724.025 79.6361C724.025 87.0894 722.763 93.7974 720.241 99.7601C717.718 105.723 714.221 110.768 709.749 114.896C705.277 119.024 699.945 122.235 693.753 124.528C687.675 126.707 681.025 127.796 673.801 127.796C661.073 127.796 650.982 124.815 643.529 118.852C636.075 112.889 632.119 103.429 631.661 90.4721H655.053C655.167 96.4347 657.117 100.849 660.901 103.716C664.799 106.468 669.673 107.844 675.521 107.844C678.846 107.844 681.942 107.213 684.809 105.952C687.79 104.691 690.37 102.971 692.549 100.792C694.727 98.4987 696.447 95.8041 697.709 92.7081C698.97 89.6121 699.601 86.2294 699.601 82.5601C699.601 75.6801 697.823 70.5774 694.269 67.2521C690.714 63.8121 685.669 62.0921 679.133 62.0921C674.89 62.0921 671.221 62.8947 668.125 64.5001C665.029 66.1054 662.277 68.6854 659.869 72.2401H637.853L658.837 5.16005H730.045L725.745 25.2841ZM745.123 86.6881C745.123 89.5547 745.352 92.3067 745.811 94.9441C746.384 97.4667 747.302 99.7027 748.563 101.652C749.824 103.487 751.544 104.977 753.723 106.124C755.902 107.271 758.654 107.844 761.979 107.844C766.107 107.844 769.719 106.697 772.815 104.404C776.026 101.996 778.778 98.9001 781.071 95.1161C783.364 91.3321 785.314 87.0894 786.919 82.3881C788.524 77.6867 789.786 72.9854 790.703 68.2841C791.735 63.5827 792.423 59.1681 792.767 55.0401C793.226 50.7974 793.455 47.3001 793.455 44.5481C793.455 41.5667 793.111 38.7574 792.423 36.1201C791.85 33.4827 790.818 31.1894 789.327 29.2401C787.951 27.2907 786.116 25.7427 783.823 24.5961C781.644 23.4494 779.007 22.8761 775.911 22.8761C771.898 22.8761 768.343 24.0801 765.247 26.4881C762.151 28.7814 759.456 31.8201 757.163 35.6041C754.87 39.3881 752.92 43.6881 751.315 48.5041C749.824 53.2054 748.62 57.9067 747.703 62.6081C746.786 67.3094 746.098 71.7814 745.639 76.0241C745.295 80.2667 745.123 83.8214 745.123 86.6881ZM720.871 81.7001C720.871 75.9667 721.387 70.0614 722.419 63.9841C723.451 57.9067 724.942 51.9441 726.891 46.0961C728.955 40.2481 731.535 34.6867 734.631 29.4121C737.842 24.1374 741.511 19.5507 745.639 15.652C749.882 11.6387 754.64 8.48539 759.915 6.19206C765.304 3.89872 771.21 2.75205 777.631 2.75205C784.396 2.75205 790.302 3.89872 795.347 6.19206C800.392 8.37072 804.578 11.4667 807.903 15.4801C811.228 19.4934 813.694 24.3094 815.299 29.928C817.019 35.4321 817.879 41.5667 817.879 48.3321C817.879 54.1801 817.363 60.2574 816.331 66.5641C815.299 72.7561 813.694 78.7761 811.515 84.6241C809.451 90.4721 806.756 96.0334 803.431 101.308C800.22 106.583 796.436 111.169 792.079 115.068C787.722 118.967 782.791 122.063 777.287 124.356C771.783 126.649 765.648 127.796 758.883 127.796C752.003 127.796 746.098 126.592 741.167 124.184C736.351 121.661 732.452 118.279 729.471 114.036C726.49 109.793 724.311 104.92 722.935 99.4161C721.559 93.7974 720.871 87.8921 720.871 81.7001Z" fill="white"></path>
</svg>
